<svg xmlns="http://www.w3.org/2000/svg" xmlns:xlink="http://www.w3.org/1999/xlink" id="Camada_1" x="0px" y="0px" viewBox="0 0 274.4 25.3" style="enable-background:new 0 0 274.4 25.3;" xml:space="preserve"><style type="text/css">	.st0{fill:#D8D8D8;}	.st1{fill-rule:evenodd;clip-rule:evenodd;fill:#D8D8D8;}</style><g>	<g>		<g id="Page-1_00000156549178336292733830000014822464507354260373_">			<g id="Landing-page_00000171712430204210733870000016708310547639687083_" transform="translate(-712.000000, -4686.000000)">				<g id="Comprar_00000174589266639702074010000008880783868776753314_" transform="translate(32.000000, 3887.000000)">											<g id="meios-de-pagamento_00000110443688619604538530000011401508504839433647_" transform="translate(365.000000, 799.000000)">						<g id="diners_00000044857764784463631970000009214676237103016584_" transform="translate(315.000000, 0.000000)">							<g id="Group_00000023975821414206885030000006074996763090188931_">							</g>							<g id="Group_00000153689997552874122370000017911432031163840956_" transform="translate(13.000000, 9.000000)">								<g id="Group_00000170993413181343518550000015883436551054812860_" transform="translate(0.530300, 0.035865)">									<path id="Path-3_00000071537656244203188410000018092139091422770828_" class="st0" d="M69.6-8.1c6.3,0,11.5,5.2,11.5,11.8          c0,6.4-5.1,11.6-11.5,11.6l0,0H56.9c-6.4,0-11.6-5.2-11.7-11.6c0.1-6.5,5.3-11.8,11.7-11.8l0,0H69.6z M56.9-7.3          c-6,0-10.8,4.9-10.9,11c0.1,5.9,4.9,10.8,10.9,10.8c6,0,10.8-4.8,10.9-10.8C67.7-2.5,62.9-7.3,56.9-7.3z M59.3-2.9          c2.6,1,4.4,3.5,4.4,6.5c-0.1,2.8-1.8,5.3-4.4,6.3l0,0V-2.9z M54.5-2.9V9.9c-2.6-1-4.4-3.5-4.4-6.3          C50.1,0.7,52-1.7,54.5-2.9L54.5-2.9z"></path>								</g>							</g>						</g>					</g>				</g>			</g>		</g>	</g>	<g>		<g id="Page-1_00000052101596341482261770000017621508484189912501_">			<g id="Landing-page_00000015316972945629866350000001857300107087069357_" transform="translate(-586.000000, -4686.000000)">				<g id="Comprar_00000054945654175357328660000002403346449999082386_" transform="translate(32.000000, 3887.000000)">											<g id="meios-de-pagamento_00000126307777305754416050000018089685986770993339_" transform="translate(365.000000, 799.000000)">						<g id="elo_00000179616171785453128310000006816013978750007732_" transform="translate(189.000000, 0.000000)">							<g id="Group_00000106837242138715103750000006693569540367088036_">							</g>							<g id="Group_00000120556653140649789660000014121027407434368416_" transform="translate(7.000000, 9.000000)">								<g id="elo-1_00000066497060142443657360000004617669704819515791_">									<path id="Path_00000036947527340272445100000017545940643479713171_" class="st0" d="M105.5-2.6c0.6-0.2,1.3-0.3,2-0.3          c3.1,0,5.7,2.2,6.3,5.2l4.4-0.9c-1-5-5.4-8.8-10.7-8.8c-1.2,0-2.4,0.2-3.5,0.6L105.5-2.6z"></path>									<path id="Path_00000116204609030530445650000009903732614956479401_" class="st0" d="M100.4,11.8l3-3.4          c-1.3-1.2-2.2-2.9-2.2-4.8c0-1.9,0.8-3.7,2.2-4.8l-3-3.4c-2.3,2-3.7,4.9-3.7,8.2C96.7,6.8,98.1,9.8,100.4,11.8"></path>									<path id="Path_00000008127792734929913610000008508124211859080103_" class="st0" d="M113.8,4.9c-0.6,2.9-3.2,5.2-6.3,5.2          c-0.7,0-1.4-0.1-2-0.3l-1.4,4.3c1.1,0.4,2.2,0.6,3.5,0.6c5.3,0,9.7-3.8,10.7-8.8L113.8,4.9z"></path>									<path id="Shape_00000068669330329238916970000017121179292532759227_" class="st0" d="M122.1,8.5c-0.1-0.2-0.3-0.6-0.5-0.9          c-0.7-1.6-0.7-3.3-0.1-4.9c0.6-1.8,1.9-3.1,3.5-3.8c2-0.9,4.2-0.7,6.1,0.4c1.2,0.7,2.1,1.8,2.7,3.3          c0.1,0.2,0.2,0.4,0.2,0.6L122.1,8.5z M126.1,1.5c-1.4,0.6-2.2,2-2,3.5l6-2.6C129.1,1.2,127.7,0.8,126.1,1.5L126.1,1.5z           M130.9,7.2C130.9,7.2,130.9,7.2,130.9,7.2l-0.1-0.1c-0.4,0.6-0.9,1.1-1.6,1.4c-1.3,0.6-2.6,0.4-3.5-0.4l-0.1,0.1          c0,0,0,0,0,0l-1.5,2.3c0.4,0.3,0.8,0.5,1.2,0.7c1.7,0.7,3.4,0.7,5.1-0.1c1.2-0.5,2.2-1.4,2.9-2.4L130.9,7.2z M138.3-4.5          V8.3l2,0.8l-1.1,2.6l-2.2-0.9c-0.5-0.2-0.8-0.5-1.1-0.9c-0.2-0.4-0.4-0.9-0.4-1.6V-4.5H138.3z M143.4,5.1          c0-1.1,0.5-2.1,1.2-2.7l-2-2.3c-1.4,1.2-2.2,3-2.2,5c0,2,0.9,3.8,2.2,5l2-2.3C143.9,7.1,143.4,6.2,143.4,5.1L143.4,5.1z           M147,8.7c-0.4,0-0.8-0.1-1.1-0.2l-1,2.9c0.7,0.2,1.4,0.3,2.1,0.3c3.2,0,5.9-2.3,6.5-5.3l-3-0.6          C150.2,7.5,148.7,8.7,147,8.7L147,8.7z M147-1.6c-0.7,0-1.4,0.1-2.1,0.3l1,2.9c0.4-0.1,0.7-0.2,1.1-0.2          c1.7,0,3.2,1.3,3.5,2.9l3-0.6C152.9,0.7,150.2-1.6,147-1.6L147-1.6z"></path>								</g>							</g>						</g>					</g>				</g>			</g>		</g>	</g>	<g>		<g id="Page-1_00000091712405996204962370000002031552677061968560_">			<g id="Landing-page_00000000208029665881107430000010992330451200912770_" transform="translate(-460.000000, -4686.000000)">				<g id="Comprar_00000088814290380853330240000012930633828222356873_" transform="translate(32.000000, 3887.000000)">											<g id="meios-de-pagamento_00000052823263614162408970000009808920682715188113_" transform="translate(365.000000, 799.000000)">						<g id="mastercard_00000085228459154038256830000011520776291966023066_" transform="translate(63.000000, 0.000000)">							<g id="Group_00000044873985667750013510000000585324324541368741_">							</g>							<g id="mastercard_00000048470268006219878330000005307049827547950777_" transform="translate(12.000000, 8.000000)">								<path id="Shape_00000111872485962469397320000014122505502832326313_" class="st1" d="M184.7-7.4c6.7,0,12.1,5.4,12.1,12         c0,6.6-5.4,12-12.1,12c-2.5,0-4.8-0.7-6.7-2c0.1-0.1,0.2-0.2,0.3-0.2c2.9-2.5,4.5-6,4.5-9.8s-1.6-7.3-4.5-9.8         c-0.1-0.1-0.2-0.2-0.3-0.2C179.9-6.6,182.2-7.4,184.7-7.4z M169.7-7.4c2.5,0,4.8,0.7,6.7,2c-0.1,0.1-0.2,0.2-0.3,0.2         c-2.9,2.5-4.5,6-4.5,9.8c0,3.7,1.6,7.3,4.5,9.8c0.1,0.1,0.2,0.2,0.3,0.2c-1.9,1.3-4.2,2-6.7,2c-6.7,0-12.1-5.4-12.1-12         S163-7.4,169.7-7.4z M177.2-4.8c0.2,0.1,0.3,0.2,0.5,0.4c2.6,2.2,4.2,5.4,4.2,9.1s-1.6,6.9-4.2,9.1         c-0.1,0.1-0.3,0.3-0.5,0.4c-0.2-0.1-0.3-0.2-0.5-0.4c-2.6-2.2-4.2-5.4-4.2-9.1s1.6-6.9,4.2-9.1         C176.9-4.5,177.1-4.7,177.2-4.8z"></path>							</g>						</g>					</g>				</g>			</g>		</g>	</g>	<g id="Group_00000129185420013983616950000006379328155575003311_">	</g>	<g>		<path class="st0" d="M15.2,5.5l-3.9,10l-0.5-2.2l0,0l0,0l0,0L9.6,6.9c0,0-0.2-1.3-1.9-1.3H1.3L1.2,5.8h0l0,0c0,0,0.5,0.1,1.3,0.3   c0,0,0,0,0,0c0.4,0.1,0.8,0.3,1.3,0.5c0,0,0,0,0.1,0C4.1,6.8,4.3,6.9,4.6,7c0,0,0,0,0,0c0.2,0.1,0.5,0.2,0.7,0.4c0,0,0,0,0.1,0   l3.5,12.6h4.2l6.4-14.6H15.2z"></path>		<polygon class="st0" points="21.2,5.5 18.6,20.1 22.7,20.1 25.2,5.5   "></polygon>		<path class="st0" d="M31,9.6c0-1.6,3.9-1.4,5.7-0.5l0.6-3.1c0,0-1.8-0.6-3.6-0.6c-2,0-6.8,0.8-6.8,4.8c0,3.8,5.6,3.8,5.6,5.8   s-5,1.6-6.7,0.4l-0.6,3.3c0,0,1.8,0.8,4.6,0.8c2.8,0,6.9-1.3,6.9-5C36.6,11.6,31,11.2,31,9.6z"></path>		<path class="st0" d="M47.5,5.5h-3.3c-1.5,0-1.9,1.1-1.9,1.1l-6,13.5h4.2l0.8-2.2h5.1l0.5,2.2h3.7L47.5,5.5z M42.6,15l2.1-5.4   l1.2,5.4H42.6z"></path>	</g>	<g>		<g>			<g>				<path class="st0" d="M250,7.2h-3c-2.2,0-3.9,1.7-3.9,3.9v10.2c0,0.3,0.2,0.5,0.5,0.5h0.3l0.2-0.3c0-0.2,0-0.2,0-0.3v-10     c0-1.6,1.3-2.8,2.8-2.8h3c1.6,0,2.8,1.3,2.8,2.8v2.2c0,1.6-1.3,2.8-2.8,2.8h-4.4l-0.3,0.3v0.2c0,0.3,0.2,0.5,0.5,0.5h4.2     c2.2,0,3.9-1.7,3.9-3.9V11C253.9,9.1,252.2,7.2,250,7.2z"></path>				<path class="st0" d="M255.5,7.5h-1.3c-0.3,0-0.5,0.2-0.5,0.5s0.2,0.5,0.5,0.5h1.3c0.5,0,0.8,0.3,0.8,0.8v7.5     c0,0.3,0.2,0.5,0.5,0.5s0.5-0.2,0.5-0.3l0.2-0.2V9.4C257.5,8.3,256.6,7.5,255.5,7.5z"></path>				<path class="st0" d="M257.4,3.3c-0.3-0.3-0.8-0.3-1.1,0l-0.6,0.6c-0.3,0.3-0.3,0.8,0,1.1l0.6,0.6c0.2,0.2,0.3,0.2,0.5,0.2     s0.5,0,0.5-0.2l0.6-0.6c0.3-0.3,0.3-0.8,0-1.1L257.4,3.3z"></path>				<path class="st0" d="M272.7,16.1h-1.1c-0.5,0-1.1-0.2-1.4-0.5l-3-3c-0.2-0.2-0.3-0.2-0.5-0.3c0.2-0.2,0.3-0.2,0.5-0.3l3-3     c0.5-0.5,0.9-0.6,1.4-0.6h1.1c0.3,0,0.5-0.2,0.5-0.5c0-0.3-0.2-0.5-0.5-0.5h-1.3c-0.8,0-1.6,0.3-2,0.9l-3,3c0,0-0.2,0-0.2,0.2     c-0.2,0.2-0.2,0.2-0.3,0.2c-0.2,0-0.3-0.2-0.3-0.2l-3-3c-0.5-0.6-1.4-0.9-2.2-0.9h-1.3c-0.3,0-0.5,0.2-0.5,0.5     c0,0.3,0.2,0.5,0.5,0.5h1.3c0.5,0,1.1,0.2,1.4,0.5l3,3c0.2,0.2,0.3,0.3,0.5,0.3c-0.2,0-0.3,0.2-0.5,0.3l-3,3.1     c-0.5,0.5-0.9,0.6-1.4,0.6h-1.3c-0.3,0-0.5,0.2-0.5,0.5c0,0.3,0.2,0.5,0.5,0.5h1.3c0.9,0,1.7-0.3,2.4-1.1l3-3     c0.2-0.2,0.5-0.2,0.6,0l3,3c0.5,0.6,1.4,0.9,2.2,0.9h1.1c0.3,0,0.5-0.2,0.5-0.5C273.2,16.3,273,16.1,272.7,16.1z"></path>			</g>			<path class="st0" d="M235,19c-0.8,0-1.6-0.3-2-0.8l-3-3c-0.2-0.2-0.6-0.2-0.8,0l-3,3c-0.5,0.5-1.3,0.8-2,0.8h-0.6l3.8,3.8    c1.1,1.1,3.1,1.1,4.2,0l3.8-3.8H235z"></path>			<path class="st0" d="M224.1,8.5c0.8,0,1.6,0.3,2,0.8l3,3c0.2,0.2,0.6,0.2,0.8,0l3-3c0.5-0.5,1.3-0.8,2-0.8h0.3l-3.8-3.8    c-1.1-1.1-3.1-1.1-4.2,0l0,0l-3.8,3.8H224.1z"></path>			<path class="st0" d="M238.4,11.6L236,9.2h-0.2h-1.1c-0.5,0-1.1,0.2-1.4,0.6l-3,3c-0.6,0.6-1.4,0.6-2,0l-2.8-3    c-0.3-0.3-0.9-0.6-1.4-0.6h-1.3h-0.2l-2.4,2.4c-1.1,1.1-1.1,3.1,0,4.2l2.4,2.4h0.2h1.3c0.5,0,1.1-0.2,1.4-0.6l3-3    c0.5-0.5,1.4-0.5,2,0l3,3c0.3,0.3,0.9,0.6,1.4,0.6h1.1h0.2l2.4-2.4C239.7,14.7,239.7,12.8,238.4,11.6L238.4,11.6"></path>		</g>	</g></g></svg>