<svg xmlns="http://www.w3.org/2000/svg" xmlns:xlink="http://www.w3.org/1999/xlink" id="Camada_1" x="0px" y="0px" viewBox="0 0 235.9 59.7" style="enable-background:new 0 0 235.9 59.7;" xml:space="preserve"><style type="text/css">	.st0{fill:#FF8500;}	.st1{fill-rule:evenodd;clip-rule:evenodd;fill:#FFFFFF;}</style><g>	<g>		<path class="st0" d="M183.5,41.1c3.6-4.2,7.9-9.3,10.6-14.2c1.6-3,3-6.4,3-9.8c0-4.5-1.6-8.3-4.8-11.4c-3.3-3.1-7.4-4.5-12-4.5   c-6.7,0-12.3,3.1-16.9,8l-1.3,1.4l4.8,4.4l1.3-1.4c3.3-3.5,7.3-6,12.1-6c2.8,0,5.3,0.7,7.3,2.7c1.9,1.8,2.8,4,2.8,6.6   c0,3.2-1.6,6.4-3.4,9c-1.2,1.7-2.4,3.4-3.6,5c-1.6,2-3.2,3.9-4.9,5.9l-14.5,16.9v5.2h34v-6.4h-24.3L183.5,41.1z"></path>		<path class="st0" d="M229.9,37.7V2.1h-4.8L196.8,40l0.8,4.1h25.7v14.6h6.6V44.2h6v-6.4H229.9z M223.3,15.5v22.3h-16.8L223.3,15.5z   "></path>	</g>	<path class="st1" d="M67.5,31.3h10.3c3.5,0,6.9-0.8,9.4-3.2c2.4-2.3,3.4-5.2,3.4-8.5c0-3.3-1-6.1-3.3-8.5c-2.4-2.4-5.5-3.3-8.9-3.3  H67.5V31.3z M67.5,38.1V59h-7V1.1h17.9c5.4,0,10.5,1.4,14.3,5.5c3.3,3.7,5,8,5,12.9c0,5-1.8,9.4-5.2,13.1  c-3.9,4.1-9.2,5.4-14.7,5.4H67.5z M42.3,59V1.1h7V59H42.3z M7,52.2h30.7V59H0V1.1h7V52.2z"></path>	<path class="st1" d="M134.2,5.1c13.8,0,25,11.2,25,25c0,13.8-11.2,25-25,25c-5.5,0-10.6-1.8-14.7-4.8c3.3,1.8,7,2.8,11,2.8  c12.6,0,22.8-10.2,22.8-22.8c0-12.6-10.2-22.8-22.8-22.8c-4.7,0-9.1,1.4-12.7,3.9C122.2,7.4,127.9,5.1,134.2,5.1"></path>	<path class="st1" d="M129.4,0c8.4,0,16,3.5,21.4,9.1C146.2,5.3,140.2,3,133.7,3c-15,0-27.2,12.2-27.2,27.2  c0,15,12.2,27.2,27.2,27.2c5,0,9.6-1.3,13.6-3.6c-5,3.7-11.2,6-17.9,6c-16.5,0-29.9-13.4-29.9-29.9C99.5,13.4,112.9,0,129.4,0"></path>	<path class="st1" d="M130.3,18.1L130.3,18.1c0.6,0,1,0.5,1,1v9.5h-2v-9.5C129.3,18.6,129.7,18.1,130.3,18.1"></path>	<path class="st1" d="M145.1,30.8L145.1,30.8c0,0.6-0.5,1-1,1h-10.5v-2h10.5C144.6,29.8,145.1,30.2,145.1,30.8"></path>	<path class="st1" d="M130.3,29c1,0,1.8,0.8,1.8,1.8c0,1-0.8,1.8-1.8,1.8c-1,0-1.8-0.8-1.8-1.8C128.5,29.8,129.3,29,130.3,29   M130.3,26.8c2.2,0,4,1.8,4,4c0,2.2-1.8,4-4,4c-2.2,0-4-1.8-4-4C126.3,28.6,128.1,26.8,130.3,26.8z"></path></g></svg>